<mxfile host="app.diagrams.net" modified="2024-07-03T05:22:36.961Z" agent="Mozilla/5.0 (Windows NT 10.0; Win64; x64) AppleWebKit/537.36 (KHTML, like Gecko) Chrome/125.0.0.0 Safari/537.36" version="24.6.4" etag="X6T5FOzMTep38Kj_Uzhk" type="github">
  <diagram name="ページ1" id="WGTsjL8ZVUWMKIDuKt0u">
    <mxGraphModel>
      <root>
        <mxCell id="0" />
        <mxCell id="1" parent="0" />
      </root>
    </mxGraphModel>
  </diagram>
</mxfile>
